<svg xmlns="http://www.w3.org/2000/svg" xmlns:xlink="http://www.w3.org/1999/xlink" viewBox="0,0,256,256" width="24px" height="24px"><g fill="#ffffff" fill-rule="nonzero" stroke="none" stroke-width="1" stroke-linecap="butt" stroke-linejoin="miter" stroke-miterlimit="10" stroke-dasharray="" stroke-dashoffset="0" font-family="none" font-weight="none" font-size="none" text-anchor="none" style="mix-blend-mode: normal"><g transform="scale(10.66667,10.66667)"><path d="M11,1c-1.64497,0 -3,1.35503 -3,3h-4c-1.09306,0 -2,0.90694 -2,2v6h2c0.56503,0 1,0.43497 1,1c0,0.56503 -0.43497,1 -1,1h-2v6c0,1.09306 0.90694,2 2,2h6v-2c0,-0.56503 0.43497,-1 1,-1c0.56503,0 1,0.43497 1,1v2h6c1.09306,0 2,-0.90694 2,-2v-4c1.64497,0 3,-1.35503 3,-3c0,-1.64497 -1.35503,-3 -3,-3v-4c0,-1.09306 -0.90694,-2 -2,-2h-4c0,-1.64497 -1.35503,-3 -3,-3zM11,3c0.56503,0 1,0.43497 1,1v2h6v6h2c0.56503,0 1,0.43497 1,1c0,0.56503 -0.43497,1 -1,1h-2v6h-4c0,-1.64497 -1.35503,-3 -3,-3c-1.64497,0 -3,1.35503 -3,3h-4v-4c1.64497,0 3,-1.35503 3,-3c0,-1.64497 -1.35503,-3 -3,-3v-4h6v-2c0,-0.56503 0.43497,-1 1,-1z"></path></g></g></svg>